<svg xmlns="http://www.w3.org/2000/svg" width="43.33" height="30.834" viewBox="0 0 43.33 30.834">
  <path id="Path_1" data-name="Path 1" d="M56.661,54.234a15.333,15.333,0,0,0,3.132-9.3,15.531,15.531,0,0,0-.215-2.568,17.181,17.181,0,0,0-.525-2.256,14.826,14.826,0,0,0-9.53-9.759,16.386,16.386,0,0,0-5.711-.829L24.089,29.51A1.374,1.374,0,0,0,23.7,32.2s12.412,3.517,14.942,4.523a42.969,42.969,0,0,0-6.548-1.1,15.387,15.387,0,0,0-2.917,11.868,16.844,16.844,0,0,0,.525,2.257,14.826,14.826,0,0,0,9.53,9.759,16.376,16.376,0,0,0,5.71.828l19.723.012a1.374,1.374,0,0,0,.388-2.693s-12.413-3.516-14.943-4.522A42.962,42.962,0,0,0,56.661,54.234Zm-9.407-3.286a6.707,6.707,0,0,1-8.716-2.867,6.814,6.814,0,0,1-.183-6.027A6.017,6.017,0,0,1,41.5,38.906a6.706,6.706,0,0,1,8.716,2.867A6.817,6.817,0,0,1,50.4,47.8,6.02,6.02,0,0,1,47.254,50.948Z" transform="translate(-22.713 -29.51)" fill="#fff"/>
</svg>
